<svg xmlns="http://www.w3.org/2000/svg" version="1.1" xmlns:xlink="http://www.w3.org/1999/xlink" xmlns:svgjs="http://svgjs.dev/svgjs" viewBox="0 0 1920 1080"><rect width="1920" height="1080" fill="#746fae"></rect><g transform="matrix(0.5750000000000001,0.9959292143521044,-0.9959292143521044,0.5750000000000001,918.1165886010884,-661.715606515568)"><path d="M0,-1080C-15.947255591165856,-958.939393914182,-84.46901950465767,-577.1311061589145,-95.68353354699514,-353.63636348509175C-106.8980475893326,-130.14162081126906,-64.23661146282492,51.90061860563486,-67.28708425402482,260.9684560429362C-70.33755704522471,470.0362934802376,-104.89247204046661,687.2374434169683,-113.9863702941945,900.7706611387165C-123.08026854792239,1114.3038788604647,-140.8482021587579,1332.296205896545,-121.85047377639216,1542.1677623734256C-102.85274539402641,1752.0393188503062,-20.30841229606536,2057.027960395571,0,2160L 1920 2160 L 1920 -1080 Z" fill="url(&quot;#SvgjsLinearGradient1042&quot;)"></path><path d="M384,-1080C372.3527371418679,-1009.775679021153,332.4568559185192,-853.2758332055867,314.11642285120763,-658.6540741269179C295.7759897838961,-464.0323150482491,281.0631051179738,-96.22952689289085,273.95740159613086,87.73055447201295C266.8516980742879,271.6906358369167,273.05029652529737,295.4492982624061,271.48220172015016,445.10641406250505C269.91410691500295,594.763529862604,249.88791601731384,784.0258396292379,264.54883276524754,985.6732492726067C279.20974951318124,1187.3206589159754,339.5391743352936,1459.269746801485,359.44770220775234,1654.9908719227174C379.3562300802111,1850.7119970439496,379.90795036795873,2075.8318119871196,384,2160L 1920 2160 L 1920 -1080 Z" fill="url(&quot;#SvgjsLinearGradient1043&quot;)"></path><path d="M768,-1080C783.115615396565,-1027.1024319594503,846.8687961207539,-918.2745449812054,858.6936923793896,-762.6145917567014C870.5185886380253,-606.9546385321975,861.1155940988409,-274.656138684332,838.9493775518145,-146.0402806529762C816.783161004788,-17.42442262162041,734.0669143447108,-125.54924169619909,725.6963930972308,9.080556431433365C717.3258718497509,143.71035455906582,775.2663787205277,523.2439829097673,788.7262500669347,661.7385081128185C802.1861214133417,800.2330333158698,791.6210132240132,712.9892422967395,806.4556211756725,840.047707649741C821.2902291273318,967.1061730027426,865.0809078627062,1281.4653520592274,877.7338977768904,1424.0893002308278C890.3868876910747,1566.7132484024282,900.6625436235931,1573.1396133844821,882.373560660778,1695.7913966793442C864.0845776979629,1818.4431799742063,787.0622601101297,2082.6318994465573,768,2160L 1920 2160 L 1920 -1080 Z" fill="url(&quot;#SvgjsLinearGradient1044&quot;)"></path><path d="M1152,-1080C1167.8293260268601,-964.2874285347799,1244.9210601855966,-605.5804555458857,1246.9759561611615,-385.7245712086793C1249.0308521367265,-165.86868687147296,1193.3551680948344,32.05581474517706,1164.3293758533896,239.13530602323812C1135.3035836119448,446.2147973012992,1061.3660146725872,647.1885736590266,1072.8212027124925,856.7523764596871C1084.276390752398,1066.3161792603476,1219.864037878237,1279.3101855704822,1233.0605040928217,1496.518122827201C1246.2569703074064,1713.72606008392,1165.5100840154703,2049.4196871378667,1152,2160L 1920 2160 L 1920 -1080 Z" fill="url(&quot;#SvgjsLinearGradient1045&quot;)"></path><path d="M1536,-1080C1534.1632847523658,-1007.9706926863416,1534.5071735793476,-847.1958737053212,1524.9797085141952,-647.82415611805C1515.4522434490427,-448.45243853077886,1473.6195415669426,-82.50533515159441,1478.8352096090857,116.23030552362684C1484.0508776512288,314.9659461988481,1547.7131736098954,371.75255736416,1556.273716767053,544.5896879332773C1564.8342599242105,717.4268185023947,1546.7478950108812,978.6211882912205,1530.1984685520313,1153.253088938331C1513.6490420931814,1327.8849895854416,1456.010236105959,1424.5899399723291,1456.9771580139536,1592.3810918159406C1457.9440799219483,1760.1722436595521,1522.829526335659,2065.39684863599,1536,2160L 1920 2160 L 1920 -1080 Z" fill="url(&quot;#SvgjsLinearGradient1046&quot;)"></path></g><defs><linearGradient x1="0.1" y1="0" x2="0" y2="1" id="SvgjsLinearGradient1042"><stop stop-color="#746fae" offset="0"></stop><stop stop-color="#6f74ae" offset="0"></stop></linearGradient><linearGradient x1="0.1" y1="0" x2="0" y2="1" id="SvgjsLinearGradient1043"><stop stop-color="#5b5598" offset="0"></stop><stop stop-color="#555a98" offset="0.2"></stop></linearGradient><linearGradient x1="0.1" y1="0" x2="0" y2="1" id="SvgjsLinearGradient1044"><stop stop-color="#484479" offset="0"></stop><stop stop-color="#444979" offset="0.4"></stop></linearGradient><linearGradient x1="0.1" y1="0" x2="0" y2="1" id="SvgjsLinearGradient1045"><stop stop-color="#36335a" offset="0"></stop><stop stop-color="#33365a" offset="0.6"></stop></linearGradient><linearGradient x1="0.1" y1="0" x2="0" y2="1" id="SvgjsLinearGradient1046"><stop stop-color="#24223c" offset="0"></stop><stop stop-color="#22243c" offset="0.8"></stop></linearGradient></defs></svg>